<svg width="334" height="320" viewBox="0 0 334 320" fill="none" xmlns="http://www.w3.org/2000/svg">
<circle cx="167" cy="160" r="160" fill="#32C4D8"/>
<g clip-path="url(#clip0_143_156)">
<path d="M194.555 80.8381C200.814 80.8381 205.889 75.7619 205.889 69.5C205.889 63.2382 200.814 58.162 194.555 58.162C188.295 58.162 183.22 63.2382 183.22 69.5C183.22 75.7619 188.295 80.8381 194.555 80.8381Z" fill="#F2F2F2"/>
<path d="M282.478 249.108C299.325 236.271 307.372 214.701 302.334 194.125C302.209 193.614 302.077 193.104 301.938 192.595C298.598 180.381 290.336 168.772 278.294 164.87C268.182 161.593 257.146 164.113 246.597 162.81C225.89 160.252 209.836 143.491 198.54 125.943C187.244 108.395 178.562 88.7524 163.552 74.255C138.811 50.3586 98.4511 45.2137 67.7751 60.7685C37.0992 76.3233 17.559 110.833 18.3923 145.226C19.2257 179.619 39.6367 212.502 69.2785 229.948C80.1677 236.357 92.762 240.897 105.296 239.308C116.172 237.93 126.053 232.084 136.878 230.349C153.896 227.62 170.806 235.317 185.526 244.287C200.245 253.256 214.464 263.888 231.19 268.046C247.432 272.084 267.554 260.478 282.478 249.108Z" fill="#F2F2F2"/>
<path d="M258.273 61.4907C257.903 61.2444 257.53 61.0109 257.161 60.7731C246.485 53.9432 235.042 48.3946 223.069 44.2421L220.293 82.5526H202.694V38.6497C201.586 38.4204 200.469 38.2038 199.353 38V82.5526H178.438C166.924 82.5526 155.882 77.9772 147.741 69.833C139.599 61.6888 135.025 50.6429 135.025 39.1253V39.1253C133.905 39.3673 132.792 39.6263 131.68 39.9023V82.5526H114.645L112.001 46.0213C99.6966 50.7417 88.0156 56.9492 77.2177 64.5056C77.0309 64.633 76.8442 64.7647 76.6616 64.892C75.7235 65.5502 74.7981 66.2212 73.877 66.9006V213.055H124.082L123.195 200.762L118.313 133.267H216.621L211.74 200.762L210.853 213.055H260.501V62.9685C259.763 62.4674 259.02 61.9748 258.273 61.4907ZM131.68 122.12H117.506L114.887 85.8987H131.68V122.12ZM199.353 122.12H175.547V121.402C175.547 121.057 175.479 120.716 175.347 120.397C175.215 120.078 175.022 119.789 174.778 119.545C174.534 119.301 174.244 119.108 173.925 118.977C173.606 118.845 173.265 118.777 172.92 118.778H162.571C162.226 118.778 161.885 118.846 161.567 118.978C161.248 119.109 160.959 119.303 160.715 119.546C160.472 119.79 160.278 120.079 160.147 120.398C160.015 120.716 159.947 121.058 159.947 121.402V122.12H135.025V85.8987H199.353V122.12ZM202.694 122.12V85.8987H220.051L217.432 122.12H202.694Z" fill="#3F3D56"/>
<path d="M0 222.415C3.68768 226.786 7.67633 230.893 11.9368 234.708L322.063 235.132C326.324 231.318 330.312 227.21 334 222.839L0 222.415Z" fill="#3F3D56"/>
<path d="M210.307 183.051V219.444C210.307 219.908 210.491 220.353 210.819 220.68C211.147 221.008 211.592 221.193 212.055 221.193H265.968C266.431 221.193 266.876 221.008 267.204 220.68C267.532 220.353 267.716 219.908 267.716 219.444V183.051C267.715 182.588 267.531 182.144 267.203 181.816C266.875 181.489 266.431 181.305 265.968 181.304H212.055C211.592 181.305 211.148 181.489 210.82 181.816C210.492 182.144 210.308 182.588 210.307 183.051Z" fill="#3F3D56"/>
<path d="M211.572 183.504V218.995C211.572 219.243 211.671 219.48 211.846 219.656C212.021 219.831 212.259 219.929 212.506 219.93H265.519C265.767 219.929 266.004 219.831 266.18 219.656C266.355 219.48 266.453 219.243 266.454 218.995V183.504C266.454 183.256 266.355 183.018 266.18 182.842C266.005 182.667 265.767 182.568 265.519 182.567H212.506C212.258 182.568 212.021 182.667 211.845 182.842C211.67 183.018 211.572 183.256 211.572 183.504Z" fill="#32C4D8"/>
<path d="M209.179 226.542C209.278 226.665 209.404 226.765 209.546 226.834C209.689 226.902 209.846 226.937 210.004 226.936H267.732C267.89 226.936 268.046 226.901 268.188 226.833C268.331 226.765 268.456 226.666 268.556 226.543C268.655 226.421 268.726 226.277 268.763 226.124C268.8 225.97 268.803 225.81 268.77 225.656L267.874 221.398C267.837 221.224 267.757 221.063 267.642 220.928C267.526 220.793 267.379 220.689 267.213 220.626C267.093 220.579 266.965 220.555 266.836 220.555H210.897C210.768 220.555 210.64 220.579 210.52 220.626C210.354 220.689 210.207 220.793 210.091 220.928C209.976 221.063 209.896 221.224 209.858 221.398L208.962 225.656C208.93 225.81 208.933 225.97 208.971 226.123C209.008 226.276 209.08 226.419 209.179 226.542Z" fill="#2F2E41"/>
<path d="M264.855 222.389H266.219C266.333 222.389 266.426 222.296 266.426 222.182V221.529C266.426 221.415 266.333 221.322 266.219 221.322H264.855C264.741 221.322 264.648 221.415 264.648 221.529V222.182C264.648 222.296 264.741 222.389 264.855 222.389Z" fill="#3F3D56"/>
<path d="M261.299 222.389H262.663C262.777 222.389 262.87 222.296 262.87 222.182V221.529C262.87 221.415 262.777 221.322 262.663 221.322H261.299C261.185 221.322 261.092 221.415 261.092 221.529V222.182C261.092 222.296 261.185 222.389 261.299 222.389Z" fill="#3F3D56"/>
<path d="M257.743 222.389H259.107C259.221 222.389 259.314 222.296 259.314 222.182V221.529C259.314 221.415 259.221 221.322 259.107 221.322H257.743C257.629 221.322 257.536 221.415 257.536 221.529V222.182C257.536 222.296 257.629 222.389 257.743 222.389Z" fill="#3F3D56"/>
<path d="M254.187 222.389H255.551C255.665 222.389 255.758 222.296 255.758 222.182V221.529C255.758 221.415 255.665 221.322 255.551 221.322H254.187C254.073 221.322 253.98 221.415 253.98 221.529V222.182C253.98 222.296 254.073 222.389 254.187 222.389Z" fill="#3F3D56"/>
<path d="M250.631 222.389H251.995C252.109 222.389 252.202 222.296 252.202 222.182V221.529C252.202 221.415 252.109 221.322 251.995 221.322H250.631C250.517 221.322 250.424 221.415 250.424 221.529V222.182C250.424 222.296 250.517 222.389 250.631 222.389Z" fill="#3F3D56"/>
<path d="M247.075 222.389H248.439C248.553 222.389 248.646 222.296 248.646 222.182V221.529C248.646 221.415 248.553 221.322 248.439 221.322H247.075C246.961 221.322 246.868 221.415 246.868 221.529V222.182C246.868 222.296 246.961 222.389 247.075 222.389Z" fill="#3F3D56"/>
<path d="M243.519 222.389H244.883C244.997 222.389 245.09 222.296 245.09 222.182V221.529C245.09 221.415 244.997 221.322 244.883 221.322H243.519C243.405 221.322 243.312 221.415 243.312 221.529V222.182C243.312 222.296 243.405 222.389 243.519 222.389Z" fill="#3F3D56"/>
<path d="M239.963 222.389H241.327C241.441 222.389 241.534 222.296 241.534 222.182V221.529C241.534 221.415 241.441 221.322 241.327 221.322H239.963C239.849 221.322 239.756 221.415 239.756 221.529V222.182C239.756 222.296 239.849 222.389 239.963 222.389Z" fill="#3F3D56"/>
<path d="M236.407 222.389H237.771C237.885 222.389 237.978 222.296 237.978 222.182V221.529C237.978 221.415 237.885 221.322 237.771 221.322H236.407C236.293 221.322 236.2 221.415 236.2 221.529V222.182C236.2 222.296 236.293 222.389 236.407 222.389Z" fill="#3F3D56"/>
<path d="M232.851 222.389H234.215C234.329 222.389 234.422 222.296 234.422 222.182V221.529C234.422 221.415 234.329 221.322 234.215 221.322H232.851C232.737 221.322 232.644 221.415 232.644 221.529V222.182C232.644 222.296 232.737 222.389 232.851 222.389Z" fill="#3F3D56"/>
<path d="M229.295 222.389H230.659C230.773 222.389 230.866 222.296 230.866 222.182V221.529C230.866 221.415 230.773 221.322 230.659 221.322H229.295C229.181 221.322 229.088 221.415 229.088 221.529V222.182C229.088 222.296 229.181 222.389 229.295 222.389Z" fill="#3F3D56"/>
<path d="M225.739 222.389H227.103C227.217 222.389 227.31 222.296 227.31 222.182V221.529C227.31 221.415 227.217 221.322 227.103 221.322H225.739C225.625 221.322 225.532 221.415 225.532 221.529V222.182C225.532 222.296 225.625 222.389 225.739 222.389Z" fill="#3F3D56"/>
<path d="M222.183 222.389H223.547C223.661 222.389 223.754 222.296 223.754 222.182V221.529C223.754 221.415 223.661 221.322 223.547 221.322H222.183C222.069 221.322 221.976 221.415 221.976 221.529V222.182C221.976 222.296 222.069 222.389 222.183 222.389Z" fill="#3F3D56"/>
<path d="M218.627 222.389H219.991C220.105 222.389 220.198 222.296 220.198 222.182V221.529C220.198 221.415 220.105 221.322 219.991 221.322H218.627C218.513 221.322 218.42 221.415 218.42 221.529V222.182C218.42 222.296 218.513 222.389 218.627 222.389Z" fill="#3F3D56"/>
<path d="M215.071 222.389H216.435C216.549 222.389 216.642 222.296 216.642 222.182V221.529C216.642 221.415 216.549 221.322 216.435 221.322H215.071C214.957 221.322 214.864 221.415 214.864 221.529V222.182C214.864 222.296 214.957 222.389 215.071 222.389Z" fill="#3F3D56"/>
<path d="M211.516 222.389H212.879C212.994 222.389 213.086 222.296 213.086 222.182V221.529C213.086 221.415 212.994 221.322 212.879 221.322H211.516C211.401 221.322 211.308 221.415 211.308 221.529V222.182C211.308 222.296 211.401 222.389 211.516 222.389Z" fill="#3F3D56"/>
<path d="M264.897 224.167H266.261C266.375 224.167 266.468 224.075 266.468 223.96V223.308C266.468 223.193 266.375 223.1 266.261 223.1H264.897C264.783 223.1 264.69 223.193 264.69 223.308V223.96C264.69 224.075 264.783 224.167 264.897 224.167Z" fill="#3F3D56"/>
<path d="M261.341 224.167H262.705C262.819 224.167 262.912 224.075 262.912 223.96V223.308C262.912 223.193 262.819 223.1 262.705 223.1H261.341C261.227 223.1 261.134 223.193 261.134 223.308V223.96C261.134 224.075 261.227 224.167 261.341 224.167Z" fill="#3F3D56"/>
<path d="M257.785 224.167H259.149C259.263 224.167 259.356 224.075 259.356 223.96V223.308C259.356 223.193 259.263 223.1 259.149 223.1H257.785C257.671 223.1 257.578 223.193 257.578 223.308V223.96C257.578 224.075 257.671 224.167 257.785 224.167Z" fill="#3F3D56"/>
<path d="M254.229 224.167H255.593C255.707 224.167 255.8 224.075 255.8 223.96V223.308C255.8 223.193 255.707 223.1 255.593 223.1H254.229C254.115 223.1 254.022 223.193 254.022 223.308V223.96C254.022 224.075 254.115 224.167 254.229 224.167Z" fill="#3F3D56"/>
<path d="M250.673 224.167H252.037C252.151 224.167 252.244 224.075 252.244 223.96V223.308C252.244 223.193 252.151 223.1 252.037 223.1H250.673C250.559 223.1 250.466 223.193 250.466 223.308V223.96C250.466 224.075 250.559 224.167 250.673 224.167Z" fill="#3F3D56"/>
<path d="M247.117 224.167H248.481C248.595 224.167 248.688 224.075 248.688 223.96V223.308C248.688 223.193 248.595 223.1 248.481 223.1H247.117C247.003 223.1 246.91 223.193 246.91 223.308V223.96C246.91 224.075 247.003 224.167 247.117 224.167Z" fill="#3F3D56"/>
<path d="M243.561 224.167H244.925C245.039 224.167 245.132 224.075 245.132 223.96V223.308C245.132 223.193 245.039 223.1 244.925 223.1H243.561C243.447 223.1 243.354 223.193 243.354 223.308V223.96C243.354 224.075 243.447 224.167 243.561 224.167Z" fill="#3F3D56"/>
<path d="M240.005 224.167H241.369C241.483 224.167 241.576 224.075 241.576 223.96V223.308C241.576 223.193 241.483 223.1 241.369 223.1H240.005C239.891 223.1 239.798 223.193 239.798 223.308V223.96C239.798 224.075 239.891 224.167 240.005 224.167Z" fill="#3F3D56"/>
<path d="M236.449 224.167H237.813C237.927 224.167 238.02 224.075 238.02 223.96V223.308C238.02 223.193 237.927 223.1 237.813 223.1H236.449C236.335 223.1 236.242 223.193 236.242 223.308V223.96C236.242 224.075 236.335 224.167 236.449 224.167Z" fill="#3F3D56"/>
<path d="M232.893 224.167H234.257C234.371 224.167 234.464 224.075 234.464 223.96V223.308C234.464 223.193 234.371 223.1 234.257 223.1H232.893C232.779 223.1 232.686 223.193 232.686 223.308V223.96C232.686 224.075 232.779 224.167 232.893 224.167Z" fill="#3F3D56"/>
<path d="M229.337 224.167H230.701C230.815 224.167 230.908 224.075 230.908 223.96V223.308C230.908 223.193 230.815 223.1 230.701 223.1H229.337C229.223 223.1 229.13 223.193 229.13 223.308V223.96C229.13 224.075 229.223 224.167 229.337 224.167Z" fill="#3F3D56"/>
<path d="M225.781 224.167H227.145C227.259 224.167 227.352 224.075 227.352 223.96V223.308C227.352 223.193 227.259 223.1 227.145 223.1H225.781C225.667 223.1 225.574 223.193 225.574 223.308V223.96C225.574 224.075 225.667 224.167 225.781 224.167Z" fill="#3F3D56"/>
<path d="M222.226 224.167H223.589C223.704 224.167 223.796 224.075 223.796 223.96V223.308C223.796 223.193 223.704 223.1 223.589 223.1H222.226C222.111 223.1 222.018 223.193 222.018 223.308V223.96C222.018 224.075 222.111 224.167 222.226 224.167Z" fill="#3F3D56"/>
<path d="M218.669 224.167H220.033C220.147 224.167 220.24 224.075 220.24 223.96V223.308C220.24 223.193 220.147 223.1 220.033 223.1H218.669C218.555 223.1 218.462 223.193 218.462 223.308V223.96C218.462 224.075 218.555 224.167 218.669 224.167Z" fill="#3F3D56"/>
<path d="M215.113 224.167H216.477C216.591 224.167 216.684 224.075 216.684 223.96V223.308C216.684 223.193 216.591 223.1 216.477 223.1H215.113C214.999 223.1 214.906 223.193 214.906 223.308V223.96C214.906 224.075 214.999 224.167 215.113 224.167Z" fill="#3F3D56"/>
<path d="M211.558 224.167H212.921C213.036 224.167 213.128 224.075 213.128 223.96V223.308C213.128 223.193 213.036 223.1 212.921 223.1H211.558C211.443 223.1 211.35 223.193 211.35 223.308V223.96C211.35 224.075 211.443 224.167 211.558 224.167Z" fill="#3F3D56"/>
<path d="M235.383 226.302H249.192C249.307 226.302 249.399 226.209 249.399 226.094V225.442C249.399 225.327 249.307 225.235 249.192 225.235H235.383C235.268 225.235 235.176 225.327 235.176 225.442V226.094C235.176 226.209 235.268 226.302 235.383 226.302Z" fill="#3F3D56"/>
<path d="M220.752 190.332H219.545C219.179 190.332 218.882 190.629 218.882 190.995C218.882 191.361 219.179 191.658 219.545 191.658H220.752C221.118 191.658 221.414 191.361 221.414 190.995C221.414 190.629 221.118 190.332 220.752 190.332Z" fill="white"/>
<path d="M234.558 190.332H233.351C232.985 190.332 232.688 190.629 232.688 190.995C232.688 191.361 232.985 191.658 233.351 191.658H234.558C234.924 191.658 235.22 191.361 235.22 190.995C235.22 190.629 234.924 190.332 234.558 190.332Z" fill="white"/>
<path d="M238.469 190.332H237.262C236.896 190.332 236.6 190.629 236.6 190.995C236.6 191.361 236.896 191.658 237.262 191.658H238.469C238.835 191.658 239.132 191.361 239.132 190.995C239.132 190.629 238.835 190.332 238.469 190.332Z" fill="white"/>
<path d="M230.802 190.221H223.3C222.934 190.221 222.637 190.518 222.637 190.884C222.637 191.25 222.934 191.547 223.3 191.547H230.802C231.168 191.547 231.465 191.25 231.465 190.884C231.465 190.518 231.168 190.221 230.802 190.221Z" fill="white"/>
<path d="M249.21 190.221H241.708C241.342 190.221 241.045 190.518 241.045 190.884C241.045 191.25 241.342 191.547 241.708 191.547H249.21C249.576 191.547 249.873 191.25 249.873 190.884C249.873 190.518 249.576 190.221 249.21 190.221Z" fill="white"/>
<path d="M224.433 193.324H223.226C222.86 193.324 222.563 193.621 222.563 193.987C222.563 194.353 222.86 194.65 223.226 194.65H224.433C224.799 194.65 225.096 194.353 225.096 193.987C225.096 193.621 224.799 193.324 224.433 193.324Z" fill="white"/>
<path d="M238.239 193.324H237.032C236.666 193.324 236.37 193.621 236.37 193.987C236.37 194.353 236.666 194.65 237.032 194.65H238.239C238.605 194.65 238.902 194.353 238.902 193.987C238.902 193.621 238.605 193.324 238.239 193.324Z" fill="white"/>
<path d="M242.151 193.324H240.944C240.578 193.324 240.281 193.621 240.281 193.987C240.281 194.353 240.578 194.65 240.944 194.65H242.151C242.517 194.65 242.814 194.353 242.814 193.987C242.814 193.621 242.517 193.324 242.151 193.324Z" fill="white"/>
<path d="M234.484 193.214H226.982C226.616 193.214 226.319 193.51 226.319 193.877C226.319 194.243 226.616 194.539 226.982 194.539H234.484C234.85 194.539 235.147 194.243 235.147 193.877C235.147 193.51 234.85 193.214 234.484 193.214Z" fill="white"/>
<path d="M252.892 193.214H245.389C245.023 193.214 244.727 193.51 244.727 193.877C244.727 194.243 245.023 194.539 245.389 194.539H252.892C253.258 194.539 253.554 194.243 253.554 193.877C253.554 193.51 253.258 193.214 252.892 193.214Z" fill="white"/>
<path d="M228.115 196.316H226.908C226.542 196.316 226.245 196.613 226.245 196.979C226.245 197.345 226.542 197.642 226.908 197.642H228.115C228.481 197.642 228.778 197.345 228.778 196.979C228.778 196.613 228.481 196.316 228.115 196.316Z" fill="white"/>
<path d="M241.921 196.316H240.713C240.347 196.316 240.051 196.613 240.051 196.979C240.051 197.345 240.347 197.642 240.713 197.642H241.921C242.287 197.642 242.583 197.345 242.583 196.979C242.583 196.613 242.287 196.316 241.921 196.316Z" fill="white"/>
<path d="M245.832 196.316H244.625C244.259 196.316 243.962 196.613 243.962 196.979C243.962 197.345 244.259 197.642 244.625 197.642H245.832C246.198 197.642 246.495 197.345 246.495 196.979C246.495 196.613 246.198 196.316 245.832 196.316Z" fill="white"/>
<path d="M238.166 196.206H230.663C230.297 196.206 230 196.503 230 196.869C230 197.235 230.297 197.532 230.663 197.532H238.166C238.532 197.532 238.828 197.235 238.828 196.869C238.828 196.503 238.532 196.206 238.166 196.206Z" fill="white"/>
<path d="M256.573 196.206H249.071C248.705 196.206 248.408 196.503 248.408 196.869C248.408 197.235 248.705 197.532 249.071 197.532H256.573C256.939 197.532 257.236 197.235 257.236 196.869C257.236 196.503 256.939 196.206 256.573 196.206Z" fill="white"/>
<path d="M231.797 199.309H230.589C230.223 199.309 229.927 199.605 229.927 199.972C229.927 200.338 230.223 200.634 230.589 200.634H231.797C232.163 200.634 232.459 200.338 232.459 199.972C232.459 199.605 232.163 199.309 231.797 199.309Z" fill="white"/>
<path d="M245.602 199.309H244.395C244.029 199.309 243.732 199.605 243.732 199.972C243.732 200.338 244.029 200.634 244.395 200.634H245.602C245.968 200.634 246.265 200.338 246.265 199.972C246.265 199.605 245.968 199.309 245.602 199.309Z" fill="white"/>
<path d="M249.514 199.309H248.307C247.941 199.309 247.644 199.605 247.644 199.972C247.644 200.338 247.941 200.634 248.307 200.634H249.514C249.88 200.634 250.177 200.338 250.177 199.972C250.177 199.605 249.88 199.309 249.514 199.309Z" fill="white"/>
<path d="M241.847 199.198H234.345C233.979 199.198 233.682 199.495 233.682 199.861C233.682 200.227 233.979 200.524 234.345 200.524H241.847C242.213 200.524 242.51 200.227 242.51 199.861C242.51 199.495 242.213 199.198 241.847 199.198Z" fill="white"/>
<path d="M234.558 211.207H233.351C232.985 211.207 232.688 211.504 232.688 211.87C232.688 212.236 232.985 212.533 233.351 212.533H234.558C234.924 212.533 235.22 212.236 235.22 211.87C235.22 211.504 234.924 211.207 234.558 211.207Z" fill="white"/>
<path d="M238.469 211.207H237.262C236.896 211.207 236.6 211.504 236.6 211.87C236.6 212.236 236.896 212.533 237.262 212.533H238.469C238.835 212.533 239.132 212.236 239.132 211.87C239.132 211.504 238.835 211.207 238.469 211.207Z" fill="white"/>
<path d="M249.21 211.318H241.708C241.342 211.318 241.045 211.614 241.045 211.98C241.045 212.347 241.342 212.643 241.708 212.643H249.21C249.576 212.643 249.873 212.347 249.873 211.98C249.873 211.614 249.576 211.318 249.21 211.318Z" fill="white"/>
<path d="M220.752 211.207H219.545C219.179 211.207 218.882 211.504 218.882 211.87C218.882 212.236 219.179 212.533 219.545 212.533H220.752C221.118 212.533 221.414 212.236 221.414 211.87C221.414 211.504 221.118 211.207 220.752 211.207Z" fill="white"/>
<path d="M230.802 211.318H223.3C222.934 211.318 222.637 211.614 222.637 211.98C222.637 212.347 222.934 212.643 223.3 212.643H230.802C231.168 212.643 231.465 212.347 231.465 211.98C231.465 211.614 231.168 211.318 230.802 211.318Z" fill="white"/>
<path d="M224.433 208.215H223.226C222.86 208.215 222.563 208.512 222.563 208.878C222.563 209.244 222.86 209.541 223.226 209.541H224.433C224.799 209.541 225.096 209.244 225.096 208.878C225.096 208.512 224.799 208.215 224.433 208.215Z" fill="white"/>
<path d="M238.239 208.215H237.032C236.666 208.215 236.37 208.512 236.37 208.878C236.37 209.244 236.666 209.541 237.032 209.541H238.239C238.605 209.541 238.902 209.244 238.902 208.878C238.902 208.512 238.605 208.215 238.239 208.215Z" fill="white"/>
<path d="M242.151 208.215H240.944C240.578 208.215 240.281 208.512 240.281 208.878C240.281 209.244 240.578 209.541 240.944 209.541H242.151C242.517 209.541 242.814 209.244 242.814 208.878C242.814 208.512 242.517 208.215 242.151 208.215Z" fill="white"/>
<path d="M234.484 208.325H226.982C226.616 208.325 226.319 208.622 226.319 208.988C226.319 209.354 226.616 209.651 226.982 209.651H234.484C234.85 209.651 235.147 209.354 235.147 208.988C235.147 208.622 234.85 208.325 234.484 208.325Z" fill="white"/>
<path d="M228.115 205.223H226.908C226.542 205.223 226.245 205.519 226.245 205.885C226.245 206.252 226.542 206.548 226.908 206.548H228.115C228.481 206.548 228.778 206.252 228.778 205.885C228.778 205.519 228.481 205.223 228.115 205.223Z" fill="white"/>
<path d="M241.921 205.223H240.713C240.347 205.223 240.051 205.519 240.051 205.885C240.051 206.252 240.347 206.548 240.713 206.548H241.921C242.287 206.548 242.583 206.252 242.583 205.885C242.583 205.519 242.287 205.223 241.921 205.223Z" fill="white"/>
<path d="M245.832 205.223H244.625C244.259 205.223 243.962 205.519 243.962 205.885C243.962 206.252 244.259 206.548 244.625 206.548H245.832C246.198 206.548 246.495 206.252 246.495 205.885C246.495 205.519 246.198 205.223 245.832 205.223Z" fill="white"/>
<path d="M238.166 205.333H230.663C230.297 205.333 230 205.63 230 205.996C230 206.362 230.297 206.659 230.663 206.659H238.166C238.532 206.659 238.828 206.362 238.828 205.996C238.828 205.63 238.532 205.333 238.166 205.333Z" fill="white"/>
<path d="M231.797 202.23H230.589C230.223 202.23 229.927 202.527 229.927 202.893C229.927 203.259 230.223 203.556 230.589 203.556H231.797C232.163 203.556 232.459 203.259 232.459 202.893C232.459 202.527 232.163 202.23 231.797 202.23Z" fill="white"/>
<path d="M245.602 202.23H244.395C244.029 202.23 243.732 202.527 243.732 202.893C243.732 203.259 244.029 203.556 244.395 203.556H245.602C245.968 203.556 246.265 203.259 246.265 202.893C246.265 202.527 245.968 202.23 245.602 202.23Z" fill="white"/>
<path d="M249.514 202.23H248.307C247.941 202.23 247.644 202.527 247.644 202.893C247.644 203.259 247.941 203.556 248.307 203.556H249.514C249.88 203.556 250.177 203.259 250.177 202.893C250.177 202.527 249.88 202.23 249.514 202.23Z" fill="white"/>
<path d="M241.847 202.341H234.345C233.979 202.341 233.682 202.638 233.682 203.004C233.682 203.37 233.979 203.667 234.345 203.667H241.847C242.213 203.667 242.51 203.37 242.51 203.004C242.51 202.638 242.213 202.341 241.847 202.341Z" fill="white"/>
<path d="M214.334 246.275L208.667 237.315L226.455 223.131L233.796 214.994C234.75 213.937 235.965 213.149 237.318 212.709C238.672 212.268 240.118 212.191 241.511 212.484C242.904 212.778 244.195 213.432 245.256 214.381C246.318 215.33 247.111 216.541 247.558 217.894C248.219 219.897 248.077 222.08 247.161 223.981C246.244 225.881 244.626 227.351 242.646 228.081L231.037 232.359L214.334 246.275Z" fill="#FFB6B6"/>
<path d="M81.3711 181.306V224.856H111.871V181.306C111.871 180.993 111.772 180.687 111.586 180.435C111.4 180.183 111.139 179.997 110.839 179.904C110.698 179.858 110.551 179.835 110.402 179.837H82.8441C82.6509 179.836 82.4595 179.874 82.2809 179.948C82.1023 180.021 81.94 180.129 81.8032 180.266C81.6664 180.402 81.5578 180.564 81.4837 180.743C81.4095 180.921 81.3713 181.113 81.3711 181.306ZM93.2739 196.27C93.2819 195.411 93.6284 194.591 94.2381 193.986C94.8478 193.382 95.6714 193.043 96.5298 193.043C97.3881 193.043 98.2117 193.382 98.8214 193.986C99.4311 194.591 99.7777 195.411 99.7856 196.27V201.323C99.7812 202.184 99.4363 203.008 98.8261 203.615C98.216 204.222 97.3904 204.563 96.5298 204.563C95.6691 204.563 94.8435 204.222 94.2334 203.615C93.6233 203.008 93.2783 202.184 93.2739 201.323V196.27Z" fill="#2F2E41"/>
<path d="M81.2778 223.463V227.663C81.2785 227.881 81.3649 228.089 81.5183 228.243C81.6717 228.398 81.8796 228.485 82.0971 228.487H111.145C111.363 228.486 111.571 228.398 111.725 228.244C111.878 228.09 111.965 227.881 111.964 227.663V223.463H81.2778Z" fill="#3F3D56"/>
<path d="M33.3906 115.691V195.208C33.3914 196.222 33.7942 197.193 34.5105 197.91C35.2268 198.626 36.1981 199.029 37.2111 199.03H155.008C156.021 199.029 156.992 198.626 157.709 197.91C158.425 197.193 158.828 196.222 158.828 195.208V115.691C158.826 114.679 158.423 113.709 157.707 112.993C156.99 112.278 156.02 111.875 155.008 111.874H37.2111C36.199 111.875 35.2286 112.278 34.5125 112.993C33.7965 113.709 33.393 114.679 33.3906 115.691Z" fill="#3F3D56"/>
<path d="M36.1543 116.681V194.227C36.1552 194.769 36.3706 195.288 36.7534 195.671C37.1361 196.053 37.6549 196.269 38.1961 196.27H154.028C154.569 196.269 155.088 196.053 155.47 195.671C155.853 195.288 156.069 194.769 156.069 194.227V116.681C156.069 116.139 155.854 115.619 155.472 115.235C155.089 114.851 154.57 114.635 154.028 114.634H38.1961C37.6542 114.635 37.1349 114.851 36.7521 115.235C36.3694 115.619 36.1544 116.139 36.1543 116.681Z" fill="white"/>
<path d="M57.6503 228.202C57.7682 228.35 57.9181 228.469 58.0887 228.551C58.2592 228.633 58.4461 228.675 58.6352 228.674H127.547C127.736 228.673 127.922 228.631 128.092 228.55C128.262 228.469 128.412 228.351 128.531 228.204C128.649 228.058 128.734 227.887 128.778 227.704C128.823 227.52 128.826 227.33 128.787 227.145L127.717 222.062C127.673 221.855 127.577 221.662 127.44 221.501C127.302 221.34 127.126 221.216 126.928 221.141C126.784 221.084 126.632 221.056 126.478 221.056H59.7007C59.5467 221.056 59.394 221.084 59.2507 221.141C59.0527 221.216 58.8767 221.34 58.7388 221.501C58.6009 221.662 58.5055 221.855 58.4611 222.062L57.3914 227.145C57.3533 227.329 57.3568 227.52 57.4016 227.703C57.4464 227.886 57.5314 228.056 57.6503 228.202Z" fill="#2F2E41"/>
<path d="M150.269 125.316H41.8854C41.7728 125.314 41.6656 125.267 41.5868 125.187C41.508 125.106 41.4639 124.998 41.4639 124.885C41.4639 124.773 41.508 124.664 41.5868 124.584C41.6656 124.503 41.7728 124.457 41.8854 124.454H150.269C150.381 124.457 150.488 124.503 150.567 124.584C150.646 124.664 150.69 124.773 150.69 124.885C150.69 124.998 150.646 125.106 150.567 125.187C150.488 125.267 150.381 125.314 150.269 125.316Z" fill="#3F3D56"/>
<path d="M49.2632 122.253C50.6582 122.253 51.7891 121.096 51.7891 119.67C51.7891 118.243 50.6582 117.087 49.2632 117.087C47.8682 117.087 46.7373 118.243 46.7373 119.67C46.7373 121.096 47.8682 122.253 49.2632 122.253Z" fill="#3F3D56"/>
<path d="M57.9888 122.253C59.3838 122.253 60.5147 121.096 60.5147 119.67C60.5147 118.243 59.3838 117.087 57.9888 117.087C56.5938 117.087 55.4629 118.243 55.4629 119.67C55.4629 121.096 56.5938 122.253 57.9888 122.253Z" fill="#3F3D56"/>
<path d="M66.7149 122.253C68.1099 122.253 69.2408 121.096 69.2408 119.67C69.2408 118.243 68.1099 117.087 66.7149 117.087C65.3199 117.087 64.189 118.243 64.189 119.67C64.189 121.096 65.3199 122.253 66.7149 122.253Z" fill="#3F3D56"/>
<path d="M145.014 117.725H138.816C138.694 117.728 138.577 117.779 138.491 117.867C138.406 117.954 138.358 118.072 138.358 118.195C138.358 118.317 138.406 118.435 138.491 118.523C138.577 118.61 138.694 118.661 138.816 118.664H145.014C145.137 118.662 145.255 118.612 145.341 118.524C145.428 118.436 145.476 118.318 145.476 118.195C145.476 118.071 145.428 117.953 145.341 117.865C145.255 117.777 145.137 117.727 145.014 117.725Z" fill="#3F3D56"/>
<path d="M145.014 119.488H138.816C138.694 119.49 138.577 119.541 138.491 119.629C138.405 119.716 138.357 119.834 138.357 119.957C138.357 120.08 138.405 120.197 138.491 120.285C138.577 120.373 138.694 120.423 138.816 120.426H145.014C145.137 120.425 145.255 120.374 145.342 120.287C145.429 120.199 145.477 120.08 145.477 119.957C145.477 119.833 145.429 119.715 145.342 119.627C145.255 119.539 145.137 119.489 145.014 119.488Z" fill="#3F3D56"/>
<path d="M145.014 121.25H138.816C138.694 121.253 138.577 121.303 138.491 121.391C138.406 121.479 138.358 121.596 138.358 121.719C138.358 121.842 138.406 121.959 138.491 122.047C138.577 122.135 138.694 122.185 138.816 122.188H145.014C145.137 122.187 145.255 122.136 145.341 122.048C145.428 121.961 145.476 121.842 145.476 121.719C145.476 121.596 145.428 121.477 145.341 121.39C145.255 121.302 145.137 121.252 145.014 121.25Z" fill="#3F3D56"/>
<path d="M294.427 225.307C294.614 225.851 294.968 226.323 295.44 226.653C295.912 226.983 296.476 227.156 297.051 227.146L308.297 226.856C308.877 226.845 309.438 226.646 309.895 226.29C310.353 225.933 310.683 225.438 310.836 224.879L312.427 207.856C312.992 208.112 313.606 208.238 314.226 208.226C314.765 208.212 315.295 208.093 315.787 207.874C316.28 207.656 316.724 207.342 317.095 206.952C317.466 206.562 317.757 206.102 317.95 205.599C318.144 205.096 318.237 204.56 318.223 204.022C318.21 203.483 318.09 202.953 317.872 202.46C317.653 201.968 317.34 201.523 316.95 201.152C316.559 200.781 316.1 200.49 315.597 200.296C315.095 200.103 314.559 200.01 314.02 200.023C313.773 200.023 313.526 200.048 313.283 200.1C313.02 199.815 312.7 199.588 312.343 199.435C311.987 199.281 311.602 199.203 311.214 199.207L293.916 199.654C293.773 199.659 293.63 199.677 293.489 199.707C293.11 199.778 292.75 199.929 292.434 200.15C292.118 200.372 291.853 200.659 291.657 200.991C291.461 201.324 291.339 201.694 291.298 202.078C291.257 202.462 291.299 202.85 291.421 203.216L294.427 225.307ZM312.754 206.7L313.886 202.644C314.015 202.175 314.018 201.681 313.895 201.211C313.95 201.211 313.998 201.185 314.053 201.185C314.829 201.169 315.581 201.461 316.142 201.998C316.703 202.535 317.028 203.273 317.046 204.05C317.064 204.826 316.774 205.579 316.239 206.141C315.703 206.704 314.967 207.032 314.19 207.052C313.688 207.068 313.192 206.946 312.754 206.7Z" fill="#2F2E41"/>
<path d="M293.49 199.707C293.858 201.815 298.002 203.297 302.984 203.039C307.565 202.828 311.311 201.219 311.998 199.312C311.744 199.236 311.48 199.201 311.215 199.207L293.916 199.654C293.773 199.659 293.63 199.677 293.49 199.707Z" fill="#3F3D56"/>
<path d="M303.897 215.953C303.92 215.947 303.941 215.937 303.961 215.924L306.403 214.325C306.433 214.306 306.457 214.28 306.474 214.249C306.49 214.218 306.499 214.183 306.499 214.148C306.499 214.113 306.491 214.078 306.474 214.047C306.457 214.016 306.433 213.99 306.403 213.97L303.865 212.307C303.842 212.292 303.815 212.281 303.788 212.276C303.761 212.27 303.732 212.271 303.705 212.276C303.678 212.282 303.652 212.293 303.629 212.309C303.605 212.324 303.586 212.344 303.57 212.368C303.555 212.391 303.545 212.417 303.539 212.445C303.534 212.472 303.534 212.5 303.54 212.528C303.546 212.555 303.557 212.581 303.573 212.604C303.589 212.627 303.609 212.647 303.632 212.662L305.899 214.147L303.729 215.569C303.687 215.597 303.656 215.638 303.641 215.686C303.627 215.734 303.63 215.786 303.65 215.832C303.671 215.878 303.706 215.915 303.752 215.938C303.797 215.96 303.848 215.965 303.897 215.953H303.897Z" fill="#32C4D8"/>
<path d="M300.04 216.131C300.081 216.12 300.118 216.098 300.146 216.066C300.174 216.035 300.192 215.995 300.198 215.954C300.204 215.912 300.197 215.869 300.178 215.831C300.16 215.793 300.13 215.762 300.093 215.741L297.842 214.45L300.018 212.833C300.04 212.816 300.059 212.795 300.073 212.771C300.088 212.748 300.097 212.721 300.101 212.693C300.105 212.666 300.104 212.638 300.097 212.611C300.09 212.584 300.078 212.558 300.062 212.536C300.045 212.514 300.024 212.495 300 212.48C299.976 212.466 299.95 212.457 299.922 212.453C299.895 212.449 299.867 212.45 299.84 212.457C299.813 212.464 299.787 212.476 299.765 212.492L297.329 214.302C297.301 214.323 297.278 214.351 297.263 214.383C297.248 214.415 297.241 214.45 297.244 214.485C297.246 214.52 297.256 214.554 297.275 214.584C297.294 214.614 297.319 214.639 297.35 214.657L299.882 216.109C299.93 216.136 299.986 216.144 300.04 216.131Z" fill="#32C4D8"/>
<path d="M303.654 217.354C303.674 217.349 303.694 217.34 303.712 217.329C303.736 217.315 303.757 217.296 303.773 217.273C303.79 217.251 303.801 217.225 303.808 217.198C303.815 217.171 303.816 217.143 303.812 217.115C303.807 217.088 303.798 217.061 303.783 217.038L300.321 211.344C300.292 211.296 300.245 211.261 300.19 211.248C300.135 211.235 300.078 211.244 300.03 211.273C299.982 211.303 299.947 211.35 299.934 211.404C299.92 211.459 299.929 211.517 299.959 211.565L303.421 217.259C303.444 217.297 303.48 217.327 303.522 217.345C303.564 217.362 303.61 217.365 303.654 217.354Z" fill="#32C4D8"/>
<path d="M109.027 148.756H90.2679C89.5027 148.756 88.8823 149.377 88.8823 150.142V151.975C88.8823 152.741 89.5027 153.361 90.2679 153.361H109.027C109.792 153.361 110.412 152.741 110.412 151.975V150.142C110.412 149.377 109.792 148.756 109.027 148.756Z" fill="#32C4D8"/>
<path d="M119.961 157.967H79.3339C78.5686 157.967 77.9482 158.587 77.9482 159.353V161.186C77.9482 161.952 78.5686 162.572 79.3339 162.572H119.961C120.726 162.572 121.347 161.952 121.347 161.186V159.353C121.347 158.587 120.726 157.967 119.961 157.967Z" fill="#E6E6E6"/>
<path d="M119.961 167.178H79.3339C78.5686 167.178 77.9482 167.798 77.9482 168.564V170.397C77.9482 171.163 78.5686 171.783 79.3339 171.783H119.961C120.726 171.783 121.347 171.163 121.347 170.397V168.564C121.347 167.798 120.726 167.178 119.961 167.178Z" fill="#E6E6E6"/>
<path d="M123.405 198.021L123.497 198.312L123.502 198.322L126.272 206.746L129.458 216.453L135.453 234.696L135.511 237.53V237.54L135.957 260.336L134.722 263.426L136.112 268.493C136.112 268.493 135.473 260.834 132.044 265.233C130.102 267.732 127.831 270.29 125.967 272.688C128.684 273.787 131.444 274.782 134.248 275.672C134.853 275.865 135.463 276.049 136.073 276.233C136.204 276.272 136.335 276.311 136.465 276.35C145.76 279.099 155.368 280.644 165.055 280.947C165.559 280.961 166.053 280.971 166.532 280.981C166.702 280.985 166.867 280.99 167.031 280.99C167.574 280.995 168.111 281 168.653 281C169.748 281 170.837 280.984 171.922 280.952C179.951 280.725 187.932 279.645 195.733 277.73C195.679 274.509 195.534 270.745 195.326 266.725C195.229 264.753 193.055 262.617 192.924 260.553C192.832 259.003 194.783 257.545 194.682 255.971C194.023 246.278 193.2 249.999 192.59 243.134C192.527 242.461 192.469 241.817 192.415 241.202C192.023 236.794 191.752 234.037 191.752 234.037L194.357 217.611L198.449 191.821L198.134 191.303L197.781 191.128L176.198 180.442L175.026 177.439C174.685 176.574 174.092 175.83 173.325 175.305C172.558 174.779 171.651 174.495 170.721 174.489L156.504 174.431C155.766 174.428 155.038 174.6 154.38 174.935C153.722 175.269 153.154 175.756 152.722 176.354L148.872 181.687L123.405 198.021Z" fill="#3F3D56"/>
<path d="M138.732 230.637L135.511 237.53L133.313 242.238L129.531 262.046L127.637 264.056L126.015 256.939L109.036 260.711C108.479 257.615 108.887 260.815 108.543 257.42C108.64 257.323 108.742 257.226 108.844 257.129C109.115 256.877 109.342 256.64 109.338 256.412C109.144 244.699 109.725 224.766 114.577 212.689C115.337 210.718 116.339 208.848 117.56 207.124C117.657 206.993 117.749 206.862 117.841 206.731C120.078 203.597 121.492 200.511 123.497 198.317V198.312C123.51 198.302 123.521 198.291 123.531 198.278C123.538 198.275 123.545 198.27 123.55 198.264L137.322 190.959L137.913 207.564L138.334 219.5L138.732 230.637Z" fill="#3F3D56"/>
<path d="M188.391 232.595L192.413 241.204L193.817 244.202L197.598 264.008L199.485 266.013L201.111 258.898L201.875 258.742L215.654 255.887L219.67 268.646C220.575 267.137 220.931 265.362 220.679 263.621C220.427 261.88 219.581 260.279 218.285 259.089C218.011 258.841 217.782 258.599 217.789 258.371C218.017 244.594 217.175 219.439 209.568 209.085C207.151 205.799 205.702 202.527 203.593 200.241C203.586 200.234 203.586 200.227 203.58 200.227L198.447 191.821L198.133 191.304L197.781 191.128L188.391 232.595Z" fill="#3F3D56"/>
<path d="M164.023 170.383C174.469 170.383 182.937 161.912 182.937 151.462C182.937 141.013 174.469 132.541 164.023 132.541C153.576 132.541 145.108 141.013 145.108 151.462C145.108 161.912 153.576 170.383 164.023 170.383Z" fill="#FFB6B6"/>
<path d="M189.588 138.246C189.441 138.089 189.265 137.964 189.069 137.877C188.872 137.79 188.661 137.744 188.446 137.741L188.731 136.951C188.823 136.702 188.849 136.433 188.803 136.172C188.758 135.91 188.644 135.665 188.473 135.462C188.302 135.259 188.08 135.105 187.83 135.016C187.58 134.927 187.31 134.906 187.05 134.955L186.014 135.155L186.111 134.463C186.149 134.205 186.119 133.942 186.024 133.699C185.929 133.457 185.772 133.243 185.569 133.079C185.367 132.916 185.125 132.808 184.868 132.766C184.611 132.724 184.348 132.75 184.104 132.841C183.882 132.928 183.643 132.965 183.405 132.948C183.167 132.931 182.936 132.861 182.728 132.743C182.52 132.629 182.339 132.47 182.198 132.279C182.058 132.087 181.96 131.868 181.913 131.635L181.552 129.894L181.514 129.8C179.757 126.87 176.378 124.739 172.243 123.957C168.563 123.257 164.789 123.613 161.151 123.949C159.708 124.085 158.078 124.237 156.72 125.07C155.565 125.783 154.589 127.21 154.788 128.649C151.201 127.55 147.355 129.745 145.449 132.514C143.191 135.809 142.822 139.936 142.762 143.163C142.601 150.798 144.176 157.045 147.432 161.733C147.669 162.072 147.729 162.782 148.2 163.019L148.102 162.862C148.629 163.125 149.164 163.55 148.964 164.004C148.391 165.312 152.199 168.204 154.882 169.16C159.776 170.905 166.283 170.756 170.859 170.128L171.021 169.045C172.672 168.82 173.835 168.391 174.162 167.72C174.739 167.227 175.232 166.786 175.66 166.378L175.665 166.374C175.673 166.365 175.69 166.353 175.699 166.344C177.766 164.361 178.246 163.232 178.462 161.512C178.67 159.826 178.301 158.115 177.923 156.573C185.878 157.805 174.79 148.098 182.202 146.221C182.287 146.195 182.373 146.173 182.461 146.157C182.677 146.106 182.894 146.055 183.102 145.996C184.104 145.724 185.065 145.313 185.954 144.777C188.026 143.516 188.709 141.843 189.779 139.957C189.933 139.689 189.998 139.378 189.964 139.071C189.929 138.763 189.798 138.474 189.588 138.246Z" fill="#2F2E41"/>
<path d="M230.921 233.942C230.917 234.685 230.909 235.725 230.875 237.012C230.87 237.19 230.866 237.373 230.862 237.56C230.807 239.925 230.751 241.908 230.662 244.112C230.658 244.264 230.654 244.413 230.645 244.566C230.526 247.64 230.34 251.22 230.017 256.889C229.419 267.36 228.374 258.328 227.326 262.001C227.275 262.184 227.22 262.401 227.169 262.655C227.01 263.58 226.742 264.482 226.371 265.343C225.815 265.675 225.242 265.993 224.677 266.312C223.068 267.207 221.434 268.069 219.787 268.889C218.861 269.348 217.932 269.798 216.998 270.231C216.849 270.299 216.705 270.367 216.561 270.43C211.778 272.643 206.85 274.525 201.809 276.061C200.825 276.358 199.844 276.647 198.851 276.915C197.815 277.203 196.779 277.475 195.731 277.73C187.931 279.645 179.949 280.726 171.921 280.953C170.838 280.987 169.747 281 168.652 281C168.109 281 167.574 280.995 167.031 280.991C166.865 280.991 166.7 280.987 166.534 280.983C166.054 280.97 165.558 280.961 165.057 280.949C155.369 280.646 145.761 279.101 136.467 276.35L136.072 276.235C135.461 276.048 134.854 275.866 134.247 275.67C131.445 274.783 128.685 273.789 125.965 272.69C123.889 271.853 121.838 270.956 119.81 269.997C119.792 269.992 119.774 269.984 119.759 269.972C119.335 269.777 118.906 269.573 118.481 269.365C118.426 269.335 118.367 269.305 118.307 269.275C116.724 268.503 115.158 267.693 113.608 266.847C112.305 263.853 110.471 263.28 109.334 260.647C109.002 259.865 108.763 259.047 108.62 258.209C108.62 258.201 108.616 258.192 108.616 258.18C108.735 259.759 108.111 255.377 108.612 258.163C108.608 258.112 108.603 258.057 108.599 257.993C108.586 257.84 108.57 257.653 108.544 257.42C107.088 243.199 107.181 226.935 106.549 213.534C106.506 212.668 106.463 211.838 106.417 211.045C106.405 210.782 106.388 210.523 106.371 210.268C106.4 210.192 106.434 210.111 106.472 210.035C106.481 210.013 106.491 209.991 106.502 209.971C106.515 209.945 106.529 209.919 106.545 209.895C106.553 209.882 106.566 209.865 106.574 209.852C106.581 209.838 106.588 209.823 106.596 209.81C106.634 209.75 106.676 209.687 106.723 209.627C106.744 209.602 106.761 209.58 106.782 209.559C106.797 209.537 106.814 209.518 106.833 209.5C106.846 209.479 106.862 209.461 106.88 209.445C106.897 209.428 106.914 209.406 106.935 209.385C106.944 209.372 106.956 209.36 106.969 209.351C107.003 209.313 107.04 209.277 107.08 209.245C107.231 209.106 107.393 208.978 107.563 208.863C107.623 208.825 107.687 208.786 107.746 208.744C108.174 208.488 108.624 208.272 109.092 208.098C109.253 208.039 109.414 207.984 109.588 207.924C109.652 207.907 109.711 207.886 109.775 207.865C109.868 207.835 109.962 207.805 110.059 207.784C110.543 207.64 111.065 207.517 111.63 207.402C111.698 207.389 111.77 207.377 111.842 207.36C111.944 207.338 112.05 207.321 112.156 207.304C112.301 207.279 112.449 207.253 112.598 207.228C113.859 207.028 115.289 206.88 116.868 206.782C117.017 206.774 117.165 206.765 117.314 206.757C117.488 206.748 117.662 206.74 117.84 206.731C117.989 206.723 118.142 206.718 118.295 206.714C118.443 206.706 118.596 206.701 118.753 206.697C119.182 206.684 119.623 206.672 120.073 206.663C121.355 206.638 122.705 206.646 124.123 206.676C124.781 206.693 125.452 206.71 126.139 206.74C126.186 206.74 126.228 206.744 126.271 206.744C126.869 206.765 127.472 206.791 128.092 206.825C128.525 206.846 128.962 206.867 129.399 206.893C129.811 206.918 130.227 206.943 130.647 206.973C130.974 206.99 131.301 207.016 131.632 207.037C131.912 207.058 132.193 207.079 132.473 207.096L132.855 207.122C133.063 207.139 133.271 207.152 133.483 207.173C133.95 207.211 134.417 207.249 134.892 207.287C135.364 207.33 135.843 207.372 136.323 207.415C136.803 207.457 137.286 207.504 137.77 207.551C137.821 207.555 137.868 207.559 137.915 207.563C138.356 207.61 138.798 207.653 139.243 207.699C139.345 207.708 139.451 207.716 139.553 207.729C139.978 207.772 140.411 207.822 140.84 207.867C140.972 207.882 141.103 207.895 141.235 207.91C141.571 207.946 141.902 207.978 142.24 208.018C142.686 208.069 143.14 208.115 143.582 208.175C143.925 208.213 144.269 208.251 144.613 208.294C145.152 208.357 145.7 208.425 146.247 208.498C146.455 208.523 146.663 208.549 146.871 208.578C148.434 208.774 150.013 208.99 151.617 209.215C154.05 209.559 156.52 209.933 159.008 210.336C161.5 210.74 164.005 211.166 166.526 211.614C167.162 211.729 167.799 211.844 168.44 211.963C168.729 212.018 169.017 212.073 169.306 212.128C169.798 212.217 170.291 212.311 170.783 212.404C171.276 212.498 171.768 212.591 172.26 212.689C172.846 212.803 173.436 212.918 174.022 213.033C177.881 213.797 181.718 214.612 185.462 215.466C186.078 215.606 186.693 215.75 187.304 215.89C188.527 216.175 189.738 216.464 190.938 216.757C191.269 216.833 191.596 216.914 191.923 216.995C192.738 217.198 193.553 217.402 194.355 217.61L194.495 217.648C195.085 217.793 195.663 217.941 196.24 218.094C197.603 218.451 198.943 218.812 200.26 219.177C201.134 219.419 201.999 219.664 202.854 219.912C204.131 220.281 205.384 220.655 206.602 221.033C206.903 221.126 207.205 221.22 207.502 221.309C208.393 221.585 209.272 221.865 210.125 222.145C210.804 222.366 211.467 222.591 212.12 222.816C212.774 223.041 213.415 223.266 214.043 223.491C214.447 223.636 214.846 223.789 215.245 223.933C215.818 224.145 216.382 224.358 216.934 224.57C217.104 224.634 217.269 224.702 217.435 224.765C217.541 224.812 217.643 224.85 217.745 224.893C217.944 224.973 218.148 225.05 218.343 225.13C218.543 225.207 218.738 225.288 218.933 225.373C219.125 225.449 219.32 225.53 219.507 225.61C219.698 225.687 219.884 225.767 220.071 225.852C220.228 225.916 220.381 225.984 220.53 226.052C220.831 226.184 221.132 226.315 221.425 226.451C221.57 226.519 221.714 226.583 221.858 226.651L222.189 226.804C222.236 226.829 222.283 226.85 222.329 226.872C222.436 226.922 222.546 226.978 222.652 227.029C222.898 227.143 223.14 227.266 223.378 227.381C223.696 227.542 224.006 227.704 224.303 227.861C224.605 228.022 224.898 228.184 225.178 228.341C225.224 228.366 225.267 228.392 225.314 228.417C225.377 228.451 225.441 228.489 225.505 228.523C225.721 228.646 225.929 228.774 226.137 228.897C226.545 229.148 226.931 229.394 227.292 229.64C227.372 229.695 227.449 229.75 227.529 229.801C227.797 229.993 228.052 230.179 228.289 230.37C228.289 230.375 228.289 230.375 228.294 230.375C228.374 230.434 228.451 230.498 228.527 230.557C228.591 230.617 228.659 230.668 228.722 230.727C228.943 230.918 229.147 231.101 229.334 231.288C229.396 231.345 229.456 231.406 229.512 231.47C229.537 231.491 229.559 231.513 229.58 231.538C229.665 231.623 229.741 231.708 229.813 231.793C229.824 231.805 229.834 231.817 229.843 231.831C229.945 231.95 230.038 232.069 230.127 232.188C230.17 232.247 230.217 232.307 230.255 232.366C230.306 232.438 230.357 232.515 230.399 232.587C230.437 232.647 230.471 232.71 230.505 232.77C230.595 232.923 230.672 233.083 230.734 233.249C230.782 233.362 230.82 233.479 230.849 233.598C230.881 233.71 230.905 233.825 230.921 233.942Z" fill="#2F2E41"/>
<path opacity="0.2" d="M230.921 233.942C230.917 234.685 230.908 235.725 230.874 237.012C230.87 237.19 230.862 237.373 230.857 237.56C230.815 239.364 230.751 241.594 230.662 244.112C230.658 244.265 230.654 244.413 230.645 244.566C230.526 247.64 230.34 251.22 230.017 256.889C229.418 267.36 228.374 258.328 227.326 262.001C224.414 260.21 221.221 258.333 217.809 256.405C217.193 256.057 216.572 255.707 215.945 255.356C209.119 251.547 201.495 247.555 193.536 243.602C193.222 243.445 192.903 243.288 192.589 243.135C174.357 234.12 154.457 225.351 138.335 219.5C135.223 218.37 132.252 217.351 129.459 216.455C123.575 214.574 118.49 213.258 114.576 212.689C110.501 212.094 107.686 212.307 106.549 213.534C106.506 212.667 106.462 211.838 106.417 211.045C106.4 210.782 106.383 210.523 106.366 210.268C106.392 210.198 106.426 210.132 106.459 210.064C106.464 210.055 106.467 210.044 106.472 210.035C106.48 210.013 106.49 209.991 106.502 209.971C106.515 209.945 106.529 209.919 106.545 209.895C106.558 209.865 106.575 209.836 106.595 209.81C106.634 209.75 106.676 209.687 106.723 209.627C106.757 209.583 106.794 209.54 106.833 209.5C106.846 209.479 106.862 209.461 106.88 209.444C106.897 209.428 106.914 209.406 106.935 209.385C106.944 209.372 106.956 209.36 106.969 209.351C107.003 209.313 107.04 209.277 107.079 209.245C107.231 209.106 107.393 208.978 107.563 208.863C107.623 208.825 107.686 208.786 107.746 208.744C108.174 208.488 108.624 208.272 109.091 208.098C109.253 208.039 109.414 207.984 109.588 207.924C109.652 207.907 109.711 207.886 109.775 207.865C109.868 207.835 109.962 207.805 110.059 207.784C110.543 207.64 111.065 207.517 111.63 207.402C111.8 207.368 111.978 207.334 112.156 207.304C112.301 207.279 112.449 207.253 112.598 207.228C113.859 207.028 115.289 206.88 116.868 206.782C117.017 206.774 117.165 206.765 117.314 206.757C117.488 206.748 117.662 206.74 117.84 206.731C117.989 206.723 118.142 206.718 118.294 206.714C118.443 206.706 118.596 206.701 118.753 206.697C119.182 206.684 119.623 206.672 120.073 206.663C121.355 206.642 122.705 206.65 124.123 206.68C124.781 206.693 125.451 206.714 126.139 206.744C126.182 206.744 126.228 206.748 126.271 206.748C126.869 206.765 127.476 206.795 128.092 206.825C128.525 206.846 128.962 206.867 129.399 206.892C129.811 206.918 130.227 206.943 130.647 206.973C130.974 206.99 131.301 207.016 131.632 207.037C131.912 207.058 132.192 207.079 132.473 207.096C132.808 207.122 133.143 207.147 133.483 207.173C133.95 207.211 134.417 207.249 134.892 207.287C135.363 207.33 135.843 207.372 136.323 207.415C136.802 207.457 137.286 207.504 137.77 207.551C137.821 207.555 137.868 207.559 137.915 207.563C138.356 207.61 138.798 207.653 139.243 207.699C141.714 207.95 144.256 208.243 146.871 208.578C148.434 208.778 150.015 208.992 151.617 209.219C154.05 209.563 156.52 209.937 159.008 210.336C161.499 210.74 164.005 211.166 166.525 211.614C167.162 211.729 167.799 211.844 168.44 211.963C169.221 212.107 170.002 212.254 170.783 212.404C171.276 212.498 171.768 212.591 172.26 212.689C172.846 212.803 173.436 212.918 174.022 213.033C177.881 213.797 181.718 214.612 185.462 215.466C186.078 215.606 186.693 215.75 187.304 215.89C188.527 216.175 189.738 216.464 190.938 216.757C191.269 216.837 191.596 216.918 191.923 216.999C192.742 217.203 193.553 217.406 194.355 217.61V217.614C194.402 217.623 194.449 217.636 194.495 217.648C195.081 217.797 195.663 217.946 196.24 218.099C197.603 218.455 198.943 218.815 200.26 219.177C201.134 219.423 202 219.665 202.854 219.912C204.131 220.285 205.384 220.659 206.602 221.033C206.903 221.126 207.205 221.22 207.502 221.309C208.393 221.589 209.268 221.868 210.125 222.145C210.804 222.366 211.467 222.591 212.12 222.816C212.774 223.041 213.415 223.266 214.043 223.491C214.451 223.636 214.85 223.784 215.245 223.929C215.822 224.141 216.382 224.353 216.934 224.57C217.104 224.634 217.269 224.702 217.435 224.765C217.745 224.884 218.046 225.007 218.343 225.131C218.543 225.207 218.738 225.288 218.933 225.373C219.124 225.449 219.32 225.53 219.506 225.61C219.697 225.687 219.884 225.767 220.071 225.852C220.228 225.916 220.381 225.984 220.53 226.052C220.831 226.184 221.132 226.315 221.425 226.451C221.57 226.519 221.714 226.583 221.858 226.651L222.189 226.804C222.236 226.829 222.283 226.85 222.329 226.871C222.69 227.041 223.038 227.211 223.378 227.381C223.696 227.542 224.006 227.704 224.303 227.861C224.656 228.048 224.991 228.23 225.314 228.417C225.377 228.451 225.441 228.489 225.505 228.523C225.721 228.646 225.929 228.774 226.137 228.897C226.545 229.148 226.931 229.394 227.292 229.64C227.648 229.886 227.979 230.128 228.289 230.37C228.289 230.375 228.289 230.375 228.293 230.375C228.442 230.494 228.586 230.612 228.722 230.727C228.943 230.918 229.147 231.101 229.333 231.288C229.396 231.345 229.456 231.406 229.512 231.47C229.536 231.491 229.559 231.513 229.58 231.538C229.669 231.636 229.758 231.734 229.843 231.831C229.945 231.95 230.038 232.069 230.127 232.188C230.17 232.247 230.216 232.307 230.255 232.366C230.306 232.438 230.357 232.515 230.399 232.587C230.437 232.646 230.471 232.71 230.505 232.77C230.595 232.923 230.672 233.083 230.734 233.249C230.781 233.363 230.819 233.479 230.849 233.598C230.881 233.71 230.905 233.825 230.921 233.942Z" fill="black"/>
</g>
<defs>
<clipPath id="clip0_143_156">
<rect width="334" height="243" fill="white" transform="translate(0 38)"/>
</clipPath>
</defs>
</svg>
